HIERARCHY
ROOT Hip
{
  OFFSET 0.0 0.0 0.0
  CHANNELS 6 Xposition Yposition Zposition Xrotation Yrotation Zrotation
  JOINT LowerSpine
  {
    OFFSET 0.0 0.061367 -0.03653
    CHANNELS 3 Xrotation Yrotation Zrotation
    JOINT MiddleSpine
    {
      OFFSET 0.0 0.056002 0.002633
      CHANNELS 3 Xrotation Yrotation Zrotation
      JOINT Chest
      {
        OFFSET 0.0 0.069296 -0.013882
        CHANNELS 3 Xrotation Yrotation Zrotation
        JOINT Neck
        {
          OFFSET 0.0 0.156156 -0.002923
          CHANNELS 3 Xrotation Yrotation Zrotation
          JOINT Head
          {
            OFFSET 0.0 0.088183 0.023986
            CHANNELS 3 Xrotation Yrotation Zrotation
            End Site
            {
              OFFSET 1e-06 0.123215 0.003678
            }
          }
        }
        JOINT LClavicle
        {
          OFFSET 0.014189 0.150698 0.046467
          CHANNELS 3 Xrotation Yrotation Zrotation
          JOINT LShoulder
          {
            OFFSET 0.082893 0.021616 -0.034976
            CHANNELS 3 Xrotation Yrotation Zrotation
            JOINT LForearm
            {
              OFFSET 0.195645 -0.000695 -0.001695
              CHANNELS 3 Xrotation Yrotation Zrotation
              JOINT LHand
              {
                OFFSET 0.163209 0.000474 -0.000977
                CHANNELS 3 Xrotation Yrotation Zrotation
                End Site
                {
                  OFFSET 0.0 0.006864 0.0
                }
              }
            }
          }
        }
        JOINT RClavicle
        {
          OFFSET -0.014189 0.150698 0.046467
          CHANNELS 3 Xrotation Yrotation Zrotation
          JOINT RShoulder
          {
            OFFSET -0.082908 0.021619 -0.034982
            CHANNELS 3 Xrotation Yrotation Zrotation
            JOINT RForearm
            {
              OFFSET -0.195645 -0.000695 -0.001695
              CHANNELS 3 Xrotation Yrotation Zrotation
              JOINT RHand
              {
                OFFSET -0.163209 0.000474 -0.000977
                CHANNELS 3 Xrotation Yrotation Zrotation
                End Site
                {
                  OFFSET 0.0 0.006864 0.0
                }
              }
            }
          }
        }
      }
    }
  }
  JOINT RThigh
  {
    OFFSET -0.072558 0.02774 -0.005953
    CHANNELS 3 Xrotation Yrotation Zrotation
    JOINT RShin
    {
      OFFSET -0.005253 -0.285537 0.0
      CHANNELS 3 Xrotation Yrotation Zrotation
      JOINT RFoot
      {
        OFFSET 0.0 -0.28038 0.0
        CHANNELS 3 Xrotation Yrotation Zrotation
        JOINT RToe
        {
          OFFSET 0.0 -0.030816 0.064441
          CHANNELS 3 Xrotation Yrotation Zrotation
          End Site
          {
            OFFSET 0.0 0.0 0.043231
          }
        }
      }
    }
  }
  JOINT LThigh
  {
    OFFSET 0.072557 0.027741 -0.005953
    CHANNELS 3 Xrotation Yrotation Zrotation
    JOINT LShin
    {
      OFFSET 0.005253 -0.285539 0.0
      CHANNELS 3 Xrotation Yrotation Zrotation
      JOINT LFoot
      {
        OFFSET 0.0 -0.28038 0.0
        CHANNELS 3 Xrotation Yrotation Zrotation
        JOINT LToe
        {
          OFFSET 0.0 -0.030816 0.064441
          CHANNELS 3 Xrotation Yrotation Zrotation
          End Site
          {
            OFFSET 0.0 0.0 0.043231
          }
        }
      }
    }
  }
}
MOTION
Frames: 10
Frame Time: 0.03333333333333333
-0.069778 0.472219 -0.190625 12.499591 1.789258 -0.517032 5.786639 -0.918884 -2.03714 -1.305735 1.2402 -0.249524 -7.121408 3.107961 -2.348844 3.163063 0.849091 1.80437 0.021254 0.182595 0.063448 -1.556007 -0.076197 1.676752 5.461256 -23.717133 -35.987411 7.204195 -67.20446 8.26597 0.095454 0.089176 -0.151798 -2.669055 -0.350767 0.769315 -4.550907 34.549015 49.693851 20.150255 73.587646 -28.825724 0.252127 -0.476199 -0.004787 -55.468159 -2.842397 -8.813272 51.637627 -3.231657 9.921041 -3.427512 -0.042702 0.048256 0.203579 0.332215 -0.019936 -48.788994 6.83568 18.059423 45.21706 9.473309 -15.121455 -4.804009 0.206755 0.008481 -0.010934 -0.057574 0.01632 
-0.059821 0.467043 -0.166483 4.21182 -1.377437 -0.62624 6.33105 -1.328395 -1.183401 -1.702325 2.6795 0.43042 -7.800414 6.468301 -2.157609 4.016643 1.142629 1.236607 0.110728 -0.271313 -0.057059 -1.619446 -2.263 1.833403 5.188913 -21.24048 -40.380165 10.207728 -65.52626 13.989774 0.155884 0.192987 -0.148954 -3.609565 -0.740242 0.144746 -6.787672 24.831156 52.751839 41.862713 78.783226 -53.663635 -0.085805 -0.32386 -0.056297 -45.246357 -2.259389 -6.389984 45.605568 -1.956704 8.315487 -3.429999 0.294742 -0.488573 -0.073813 0.351802 0.096822 -36.492786 8.547106 18.300398 41.091225 7.866594 -14.054019 -5.336337 0.576272 0.964177 0.143358 -0.178223 -0.043794 
-0.06127 0.48866 -0.134714 -0.038304 -1.867092 -0.47156 5.737546 -1.192814 -0.989404 -1.268329 3.014854 0.67177 -5.840819 6.643004 -0.594093 3.889996 1.086056 0.901799 0.089652 -0.260434 -0.06357 -1.483324 -2.325753 0.618037 4.919202 -16.404144 -45.906933 9.121778 -66.009392 15.777911 0.110652 0.151954 -0.087976 -3.33622 -0.405482 0.52247 -8.755857 16.323519 53.805557 127.874695 80.385193 -144.403732 -0.070803 -0.23927 -0.042142 -33.35154 -4.00257 -5.172977 38.857208 -2.594369 7.564113 -3.615377 0.594666 -0.275277 -0.068661 0.345228 0.099766 -24.451689 8.214867 16.421555 33.439709 6.341101 -10.955627 -5.09658 0.98997 1.234431 0.116901 -0.118616 -0.011159 
-0.054902 0.500159 -0.112321 -0.845346 -1.767007 -0.731413 5.239945 -1.048024 -0.895431 -1.066017 3.017693 0.816033 -5.065682 5.969479 0.813347 3.789492 0.982303 0.687667 0.080992 -0.19407 -0.05456 -1.348388 -1.90683 -0.042442 5.57176 -12.985771 -48.273602 10.612518 -70.129333 18.323603 0.088746 0.131261 -0.054976 -2.924635 -0.408452 0.829213 -8.999916 10.027416 53.071129 148.556366 70.707451 -168.115387 -0.00942 -0.22555 -0.032296 -28.161661 -5.726804 -5.076823 37.382923 -3.609247 7.53967 -3.958452 0.619791 -0.185764 -0.038598 0.336533 0.081715 -21.212685 7.501726 15.405743 30.879873 5.345892 -9.1416 -4.277156 1.165238 1.277282 0.115645 -0.086838 0.003874 
-0.051919 0.509331 -0.093086 -0.82388 -1.572128 -1.175944 4.841957 -0.9137 -0.802777 -0.977611 2.940884 1.011522 -4.433935 5.18421 1.669481 3.585206 0.909827 0.58362 0.071897 -0.161185 -0.049946 -1.200143 -1.50775 -0.505398 6.465368 -10.805402 -49.939548 15.576139 -74.8647 24.130348 0.081815 0.125791 -0.042297 -2.617197 -0.410153 0.868379 -10.095631 5.463098 51.645245 150.575012 62.267624 -174.113907 0.016449 -0.211678 -0.029668 -24.068047 -6.527836 -5.046151 33.913742 -4.354574 7.356346 -3.858392 0.689458 -0.08889 -0.022106 0.336568 0.077702 -18.915094 6.924644 14.490297 28.446735 4.700603 -7.804106 -3.764062 1.337139 1.341794 0.125777 -0.081255 0.005849 
-0.049803 0.518179 -0.081648 -0.807073 -1.548214 -1.617981 4.55907 -0.816084 -0.725655 -1.004985 2.800159 1.204636 -3.813884 4.515882 2.179103 3.420338 0.893157 0.55604 0.069005 -0.153325 -0.049321 -1.070887 -1.211442 -0.875637 7.374493 -9.546291 -51.288929 26.05401 -79.471748 35.339958 0.08363 0.130237 -0.041698 -2.450825 -0.392574 0.777801 -11.595252 2.139494 50.296371 148.562698 56.13953 -176.309479 0.017543 -0.191819 -0.030457 -21.058836 -6.895544 -4.614945 30.210993 -4.891447 7.08853 -3.614648 0.782171 -0.008221 -0.01457 0.344736 0.086449 -16.113182 6.404123 13.727821 25.823956 3.933397 -6.757751 -3.431962 1.44887 1.434255 0.126174 -0.081064 0.008009 
-0.049693 0.524135 -0.075011 -1.155535 -1.367512 -1.966613 4.429479 -0.730812 -0.644584 -1.017356 2.69087 1.353498 -3.279077 4.094033 2.552915 3.351588 0.921467 0.587745 0.069781 -0.162276 -0.049642 -1.007728 -1.02373 -1.054514 8.366875 -8.514309 -52.976154 45.728054 -82.78289 55.553909 0.089559 0.144297 -0.052487 -2.378848 -0.383383 0.55821 -13.200655 0.510248 49.1847 146.310089 52.060715 -177.509933 -0.003883 -0.165221 -0.032206 -19.048964 -7.158704 -3.898146 28.31781 -5.297803 6.810783 -3.429032 0.843108 0.034996 -0.025503 0.344874 0.099495 -14.372908 5.928652 13.256876 24.61392 3.221072 -5.990821 -3.186724 1.526131 1.49471 0.126163 -0.091799 0.007043 
-0.049062 0.529435 -0.067322 -1.469299 -1.077121 -2.232593 4.333824 -0.619448 -0.544514 -1.017015 2.638658 1.463502 -2.904237 3.899638 2.803109 3.324637 0.934743 0.616049 0.070557 -0.160733 -0.047032 -0.936113 -0.88945 -1.138018 9.508811 -7.999713 -54.393715 68.39785 -84.040665 78.160164 0.096888 0.160756 -0.06357 -2.290705 -0.436281 0.25382 -15.616115 0.158094 47.957993 144.054977 49.705479 -178.388779 -0.022266 -0.138003 -0.032807 -17.071142 -7.110032 -3.199346 26.910965 -5.471849 6.483559 -3.348902 0.903331 0.074031 -0.039576 0.340054 0.104807 -12.738718 5.288958 12.922172 23.142986 2.684793 -5.33287 -2.982923 1.650957 1.596693 0.126644 -0.102726 0.004029 
-0.048222 0.534326 -0.059943 -1.753089 -0.80258 -2.322101 4.286388 -0.520205 -0.474919 -0.987633 2.635267 1.527047 -2.64483 3.957201 3.002908 3.315346 0.944977 0.634487 0.070512 -0.148922 -0.041347 -0.860561 -0.71991 -1.137006 10.460142 -7.833297 -55.460884 82.609879 -84.225586 92.016701 0.10235 0.172925 -0.071096 -2.186499 -0.54137 -0.078277 -18.322945 0.606432 47.054592 142.395813 48.158386 -179.070312 -0.023106 -0.119937 -0.030917 -15.387155 -6.812679 -2.654823 25.854836 -5.427189 6.191315 -3.381805 0.976762 0.105319 -0.049014 0.333183 0.106367 -11.215581 4.702656 12.562487 21.75828 2.231438 -4.746249 -2.850649 1.769699 1.678114 0.12579 -0.10511 0.003853 
-0.047537 0.538392 -0.054128 -2.149498 -0.64561 -2.314338 4.285515 -0.446105 -0.429639 -0.950267 2.672362 1.563527 -2.422352 4.196549 3.177226 3.321865 0.951923 0.652267 0.069816 -0.136879 -0.034088 -0.819292 -0.595102 -1.10917 11.134042 -7.897825 -56.101391 87.975235 -84.103523 96.930405 0.105551 0.182122 -0.076643 -2.117011 -0.625475 -0.428521 -20.813509 1.554044 46.428585 141.788712 47.130688 -179.674377 -0.018734 -0.108021 -0.027892 -14.054166 -6.369781 -2.342064 25.09491 -5.248431 5.979364 -3.459175 1.024908 0.119765 -0.053637 0.326964 0.106164 -9.600159 4.215873 12.23524 20.43911 1.889651 -4.283884 -2.812515 1.847232 1.742252 0.120902 -0.106281 0.003155 
